HIERARCHY
ROOT Hips
{
 OFFSET 0.000000 0.000000 0.000000
 CHANNELS 6 Xposition Yposition Zposition Yrotation Xrotation Zrotation
 JOINT Chest
 {
  OFFSET 0.000000 9.585900 0.002600
  CHANNELS 3 Yrotation Xrotation Zrotation
  JOINT Chest2
  {
   OFFSET 0.000000 9.601200 -0.005300
   CHANNELS 3 Yrotation Xrotation Zrotation
   JOINT Chest3
   {
    OFFSET 0.000000 9.561800 0.000000
    CHANNELS 3 Yrotation Xrotation Zrotation
    JOINT Chest4
    {
     OFFSET 0.000000 9.552100 0.000000
     CHANNELS 3 Yrotation Xrotation Zrotation
     JOINT Neck
     {
      OFFSET 0.000000 14.453000 0.000000
      CHANNELS 3 Yrotation Xrotation Zrotation
      JOINT Head
      {
       OFFSET 0.000000 8.936500 -0.011300
       CHANNELS 3 Yrotation Xrotation Zrotation
       End Site
       {
        OFFSET 0.000000 17.073600 -0.006000
       }
      }
     }
     JOINT RightCollar
     {
      OFFSET -2.921100 9.558500 0.000000
      CHANNELS 3 Yrotation Xrotation Zrotation
      JOINT RightShoulder
      {
       OFFSET -13.519700 0.000000 0.000000
       CHANNELS 3 Yrotation Xrotation Zrotation
       JOINT RightElbow
       {
        OFFSET 0.000000 -29.696600 0.000000
        CHANNELS 3 Yrotation Xrotation Zrotation
        JOINT RightWrist
        {
         OFFSET 0.000000 -24.004700 0.000000
         CHANNELS 3 Yrotation Xrotation Zrotation
         End Site
         {
          OFFSET 0.000000 -17.728500 0.000000
         }
        }
       }
      }
     }
     JOINT LeftCollar
     {
      OFFSET 2.921100 9.558500 0.000000
      CHANNELS 3 Yrotation Xrotation Zrotation
      JOINT LeftShoulder
      {
       OFFSET 13.519700 0.000000 0.000000
       CHANNELS 3 Yrotation Xrotation Zrotation
       JOINT LeftElbow
       {
        OFFSET 0.000000 -29.696600 0.000000
        CHANNELS 3 Yrotation Xrotation Zrotation
        JOINT LeftWrist
        {
         OFFSET 0.000000 -24.004700 0.000000
         CHANNELS 3 Yrotation Xrotation Zrotation
         End Site
         {
          OFFSET 0.000000 -17.728500 0.000000
         }
        }
       }
      }
     }
    }
   }
  }
 }
 JOINT RightHip
 {
  OFFSET -7.771700 -0.012900 -0.001300
  CHANNELS 3 Yrotation Xrotation Zrotation
  JOINT RightKnee
  {
   OFFSET 0.000000 -40.869800 0.001200
   CHANNELS 3 Yrotation Xrotation Zrotation
   JOINT RightAnkle
   {
    OFFSET 0.000000 -39.717900 0.002100
    CHANNELS 3 Yrotation Xrotation Zrotation
    JOINT RightToe
    {
     OFFSET 0.000000 -4.965400 11.033500
     CHANNELS 3 Yrotation Xrotation Zrotation
     End Site
     {
      OFFSET 0.000000 -1.423100 5.872300
     }
    }
   }
  }
 }
 JOINT LeftHip
 {
  OFFSET 7.771700 -0.012900 -0.001300
  CHANNELS 3 Yrotation Xrotation Zrotation
  JOINT LeftKnee
  {
   OFFSET 0.000000 -40.869800 0.001200
   CHANNELS 3 Yrotation Xrotation Zrotation
   JOINT LeftAnkle
   {
    OFFSET 0.000000 -39.717900 0.002100
    CHANNELS 3 Yrotation Xrotation Zrotation
    JOINT LeftToe
    {
     OFFSET 0.000000 -4.965400 11.033500
     CHANNELS 3 Yrotation Xrotation Zrotation
     End Site
     {
      OFFSET 0.000000 -1.423100 5.872300
     }
    }
   }
  }
 }
}
MOTION
Frames: 9
Frame Time: 0.008333
-51.796362 52.972340 -14.335348 -177.428711 -16.959141 -2.020259 0.488229 17.066525 0.553684 0.044536 1.787243 0.063808 0.075441 2.978755 0.107120 0.446652 15.021052 0.592287 -6.836946 21.815706 -1.399380 -7.119728 -2.183964 0.048791 6.097007 -1.777247 -0.382059 -0.942156 -43.724511 -13.291718 -92.934894 -76.278125 104.481912 -10.209644 -4.076228 -9.456125 -5.276675 -0.049488 -1.028576 1.427172 -8.461035 11.726094 65.173532 -54.375691 -107.882496 2.249758 8.823650 0.647724 2.358085 -61.559796 10.316964 168.616153 86.442499 166.772721 -12.439492 -23.712469 12.650866 0.014132 -0.066771 0.004799 5.005140 -59.987955 -3.954595 121.670443 78.300293 119.844574 -6.413011 -19.790013 -0.757621 -0.002292 0.135716 0.020488
-51.797869 52.973320 -14.336775 -177.423304 -16.916915 -2.030524 0.503941 17.095741 0.576031 0.045889 1.793614 0.065556 0.077744 2.988956 0.110041 0.438502 14.987731 0.593462 -6.875442 21.865882 -1.405684 -7.183517 -2.186668 0.052960 6.111651 -1.718276 -0.408598 -0.789306 -43.796723 -13.417921 -91.914198 -76.230338 103.303597 -10.248927 -4.105968 -9.459095 -5.251184 0.018048 -1.030487 1.395617 -8.511179 11.756252 65.181479 -54.362371 -107.924936 2.256917 8.818711 0.655582 2.382063 -61.599623 10.273984 168.262403 86.438326 166.409434 -12.230569 -23.724927 12.620688 0.021754 -0.072395 -0.003539 5.001791 -60.027585 -3.954831 121.658464 78.302388 119.837406 -6.413577 -19.792218 -0.758789 -0.003979 0.135126 0.014956
-51.799926 52.974627 -14.338099 -177.417723 -16.872435 -2.036469 0.508418 17.087465 0.587512 0.057883 1.836285 0.073117 0.080547 2.999465 0.113102 0.463319 15.038299 0.615973 -6.946936 21.827842 -1.415007 -7.251036 -2.193670 0.057523 6.098328 -1.742701 -0.452831 -0.654085 -43.844597 -13.542973 -91.614876 -76.160730 102.895130 -10.322279 -4.174928 -9.471056 -5.266410 -0.021670 -1.038254 1.368144 -8.548407 11.784791 65.181907 -54.348787 -107.949411 2.245983 8.791488 0.646738 2.423166 -61.644984 10.222319 168.006924 86.434953 166.157473 -12.123231 -23.722687 12.607930 0.026483 -0.076684 -0.003984 5.013093 -60.066629 -3.969342 121.630794 78.308865 119.816718 -6.412222 -19.793541 -0.759216 -0.002741 0.137948 0.016818
-51.803548 52.976338 -14.339940 -177.412320 -16.829503 -2.031727 0.509808 17.081164 0.588221 0.072264 1.879058 0.082384 0.083520 3.010401 0.116379 0.490137 15.089982 0.640772 -7.021927 21.786063 -1.426707 -7.320676 -2.204582 0.061058 6.083800 -1.770789 -0.492828 -0.556492 -43.876509 -13.649932 -91.976690 -76.070702 103.213987 -10.416418 -4.264201 -9.492242 -5.282525 -0.063396 -1.048994 1.338837 -8.580040 11.813832 65.101859 -54.326739 -107.893986 2.205321 8.723186 0.615311 2.478550 -61.693822 10.184153 168.214490 86.436921 166.397892 -12.263941 -23.692748 12.630900 0.020996 -0.073394 0.007968 5.042197 -60.099789 -4.007657 121.573734 78.311767 119.765943 -6.410978 -19.796211 -0.759576 -0.003472 0.141220 0.015045
-51.807027 52.978599 -14.342998 -177.402673 -16.791568 -2.027909 0.540217 17.169690 0.616363 0.050916 1.812413 0.070306 0.092698 3.040575 0.123455 0.505481 15.112568 0.657716 -7.086951 21.771964 -1.437847 -7.390917 -2.216075 0.063721 6.078727 -1.770241 -0.516557 -0.507558 -43.903148 -13.727471 -92.925849 -75.962548 104.192394 -10.517675 -4.349036 -9.503867 -5.289875 -0.073833 -1.055278 1.306521 -8.646850 11.823303 65.023662 -54.315139 -107.818388 2.230168 8.767340 0.639097 2.568451 -61.742269 10.145265 168.891693 86.447686 167.149935 -12.606607 -23.644423 12.685241 0.007470 -0.061364 0.026429 5.072284 -60.131094 -4.048079 121.524896 78.313431 119.726155 -6.415839 -19.792095 -0.761014 -0.003114 0.137849 0.015372
-51.810626 52.980398 -14.344343 -177.390039 -16.739918 -2.022448 0.554496 17.210606 0.632316 0.028248 1.740160 0.056898 0.100354 3.065209 0.128876 0.533309 15.176278 0.684130 -7.141080 21.710726 -1.450022 -7.466941 -2.174523 0.061380 6.079112 -1.766056 -0.534988 -0.508690 -43.970339 -13.771060 -94.224711 -75.845201 105.586714 -10.606313 -4.402393 -9.488842 -5.298112 -0.079137 -1.060268 1.303959 -8.649787 11.854933 65.063737 -54.305625 -107.889734 2.230500 8.765221 0.641267 2.611937 -61.802521 10.150476 169.735689 86.462399 168.062643 -13.018300 -23.591567 12.740149 -0.010946 -0.045396 0.044066 5.104669 -60.177884 -4.093535 121.481015 78.313896 119.690293 -6.426721 -19.785201 -0.759682 -0.001040 0.132989 0.015417
-51.812096 52.981875 -14.344611 -177.378753 -16.677647 -2.028018 0.563389 17.222164 0.656073 0.047661 1.804614 0.070868 0.089477 3.036256 0.125379 0.517748 15.120482 0.676794 -7.188918 21.783051 -1.456032 -7.528353 -2.200791 0.060402 6.102296 -1.710133 -0.532556 -0.545420 -43.977322 -13.783683 -96.220859 -75.720837 107.711130 -10.669423 -4.415510 -9.441878 -5.289603 -0.027308 -1.057049 1.316742 -8.646730 11.886900 65.136643 -54.296921 -108.007171 2.244925 8.776392 0.654253 2.628986 -61.862028 10.100509 169.338003 86.455058 167.650208 -12.822305 -23.602505 12.709216 -0.001565 -0.056045 0.029453 5.137222 -60.234319 -4.131136 121.428440 78.314746 119.652024 -6.429502 -19.786182 -0.762048 -0.005138 0.135369 0.018351
-51.812861 52.984262 -14.348306 -177.367289 -16.632721 -2.038111 0.562283 17.213990 0.673809 0.059693 1.865496 0.085801 0.090356 3.046220 0.129616 0.508355 15.066165 0.668321 -7.241648 21.864621 -1.461243 -7.585262 -2.215846 0.054894 6.104433 -1.708132 -0.540735 -0.607659 -43.938527 -13.746270 -98.565510 -75.588255 110.217620 -10.714593 -4.405543 -9.369609 -5.285647 0.024965 -1.052320 1.339730 -8.657784 11.907488 65.237836 -54.296440 -108.164178 2.284429 8.814414 0.691408 2.621314 -61.894045 10.027406 168.345700 86.434299 166.585307 -12.252705 -23.656765 12.629734 0.022978 -0.078858 0.000460 5.141359 -60.276376 -4.142251 121.399074 78.311209 119.625242 -6.426250 -19.783288 -0.756267 -0.014457 0.131190 0.013265
-51.815411 52.987544 -14.355777 -177.354768 -16.607726 -2.038464 0.556119 17.224763 0.681211 0.063678 1.906174 0.095092 0.089971 3.053518 0.132521 0.514188 15.083970 0.687321 -7.302370 21.880116 -1.483863 -7.640906 -2.190460 0.045976 6.103497 -1.752079 -0.573404 -0.677437 -43.927325 -13.701006 -101.090142 -75.429280 112.920550 -10.753183 -4.396714 -9.291869 -5.289848 0.023484 -1.061089 1.374627 -8.658123 11.924701 65.175374 -54.260729 -108.124422 2.221167 8.746172 0.631008 2.651366 -61.912744 9.987244 168.426384 86.430878 166.664269 -12.139455 -23.675906 12.615159 0.025390 -0.073024 -0.000196 5.143121 -60.298422 -4.155966 121.391171 78.306599 119.610285 -6.421464 -19.774478 -0.751395 -0.016636 0.116990 0.006303
